<?xml version="1.0" standalone="no"?><!DOCTYPE svg PUBLIC "-//W3C//DTD SVG 1.1//EN" "http://www.w3.org/Graphics/SVG/1.1/DTD/svg11.dtd"><svg t="1775802040332" class="icon" viewBox="0 0 1024 1024" version="1.1" xmlns="http://www.w3.org/2000/svg" p-id="24460" xmlns:xlink="http://www.w3.org/1999/xlink" width="200" height="200"><path d="M846.005 957.242c-28.587 0-57.174-10.912-78.996-32.734L96.633 254.132c-43.644-43.644-43.644-114.348 0-157.992s114.348-43.644 157.992 0l670.376 670.376c43.644 43.644 43.644 114.348 0 157.992-21.822 21.822-50.409 32.734-78.996 32.734z m-670.376 0c-28.587 0-57.174-10.912-78.996-32.734-43.644-43.644-43.644-114.348 0-157.992L767.009 96.14c43.644-43.644 114.348-43.644 157.992 0s43.644 114.348 0 157.992L254.625 924.508c-21.822 21.822-50.409 32.734-78.996 32.734z" fill="#C3DBFF" p-id="24461"></path></svg>