<?xml version="1.0" standalone="no"?><!DOCTYPE svg PUBLIC "-//W3C//DTD SVG 1.1//EN" "http://www.w3.org/Graphics/SVG/1.1/DTD/svg11.dtd"><svg t="1775055049456" class="icon" viewBox="0 0 1024 1024" version="1.1" xmlns="http://www.w3.org/2000/svg" p-id="5356" xmlns:xlink="http://www.w3.org/1999/xlink" width="200" height="200"><path d="M180.266667 243.626667A425.813333 425.813333 0 0 1 512 85.333333c235.648 0 426.666667 191.018667 426.666667 426.666667s-191.018667 426.666667-426.666667 426.666667a425.813333 425.813333 0 0 1-331.861333-158.506667 42.666667 42.666667 0 1 1 66.346666-53.632A341.333333 341.333333 0 1 0 246.613333 297.386667a42.666667 42.666667 0 1 1-66.304-53.76zM469.333333 469.333333v-40.746666a23.466667 23.466667 0 0 1 6.698667-16.426667 22.656 22.656 0 0 1 32.426667 0l82.176 83.413333c8.96 9.045333 8.96 23.808 0 32.853334l-82.176 83.413333a22.741333 22.741333 0 0 1-16.213334 6.826667 23.082667 23.082667 0 0 1-22.912-23.253334V554.666667H128a42.666667 42.666667 0 0 1 0-85.333334h341.333333z" fill="#000000" p-id="5357"></path></svg>