<?xml version="1.0" standalone="no"?><!DOCTYPE svg PUBLIC "-//W3C//DTD SVG 1.1//EN" "http://www.w3.org/Graphics/SVG/1.1/DTD/svg11.dtd"><svg t="1775818961078" class="icon" viewBox="0 0 5571 1024" version="1.1" xmlns="http://www.w3.org/2000/svg" p-id="70185" xmlns:xlink="http://www.w3.org/1999/xlink" width="1088.0859375" height="200"><path d="M5342.991673 86.956408c-31.670857-11.102041-73.848163-15.265959-116.730775-18.88653 2.883918-2.204735 3.996735-5.605878 3.672816-9.874286-24.058776-0.788898-34.126367 7.429224-60.112979 5.381224 8.056163-5.135673 1.551673-9.330939-11.342368-7.288163 7.424-6.368653 30.746122-2.476408 30.119184 4.681143 4.733388-0.679184 3.782531-4.926694-0.052245-4.926694 61.251918 3.322776 124.379429-6.885878 176.817633 3.594449-30.803592-21.253224-130.748082-20.819592-177.005715-33.144163 2.910041-5.715592 23.233306-2.56 18.855184 4.790857 4.952816-2.533878 13.985959-2.476408 14.962939-7.512816 40.792816 8.056163 87.186286 11.102041 127.947755 8.954775 46.497959 17.684898 109.170939 24.68049 135.78449 55.672163 1.682286 20.025469-3.678041 30.693878 0.350041 46.827102-11.974531 20.845714-25.197714 40.954776-48.48849 54.533225 16.378776 20.244898 25.96049 35.510857 26.749388 56.487184-4.900571 4.028082-27.674122 9.06449-11.180409 12.434285-7.78449 3.103347-15.814531 6.09698-22.480979 10.015347 1.906939 6.426122 20.814367 8.165878 11.373714 14.670368-13.00898 2.063673-14.450939-3.568327-26.31053-2.288327 2.852571 14.477061 30.474449 20.490449 37.903673 39.157551 9.142857 22.966857-7.946449 50.505143-6.964245 78.910694-36.790857 0.219429-23.729633 36.466939-74.971428 32.548571 38.697796 15.777959 95.190204 31.994776 143.187591 33.436735 8.620408 9.989224 21.002449 36.435592 0.297796 44.355918 4.409469 4.461714 9.874286 8.270367 15.156245 12.214858-7.862857 6.123102-38.394776 0.329143-26.258286 12.517877-37.548408 6.09698-86.12049-2.716735-112.650449 18.040163 0.433633 6.316408 14.064327 3.892245 18.855184 7.267266 1.201633 6.285061-6.938122 14.419592-3.594449 19.753796 21.091265 5.12 10.616163 9.304816 30.150531 9.633959-4.623673 6.828408-11.781224 12.000653-26.226939 12.48653 11.509551 6.373878 32.595592 6.316408 37.710367 16.979592-42.882612 11.755102-61.575837 3.730286-109.035102 5.746939 68.028082 12.486531 128.87249 29.737796 184.654368 50.390204 0.710531 10.752 1.441959 21.524898-7.403102 19.785143 7.131429 7.700898 12.711184 1.985306 18.776816-2.612245 4.137796 21.221878 6.232816 34.204735 26.697143 46.63902-7.429224 17.522939-33.635265 10.610939-56.299102 15.156245 3.369796 11.838694 8.489796 22.475755 26.498612 24.461062-11.781224 22.449633-75.755102 19.346286-97.546449 27.809959 8.620408 14.69649 32.130612 2.507755 52.652408-0.40751-5.172245 10.041469 8.218122 7.700898 7.617306 14.748734-66.910041 2.476408-72.897306 22.637714-142.827102 15.809306-1.828571 64.161959-51.158204 97.771102-77.850122 145.961796-32.684408-6.013388-47.072653 4.869224-63.843265 15.234613-1.682286 6.885878 20.438204-2.089796 18.808163 4.764734-29.361633 8.620408-70.666449 7.262041-112.734041 10.720653-39.267265 3.207837-72.437551 3.291429-97.802449-6.640326-193.598694 24.434939-345.328327 5.140898-548.999837 16.32653-3.348898-7.862857 12.382041-3.427265 11.180408-9.905632-62.584163-0.271673-172.298449 18.181224-233.142857 4.163918-12.110367 2.314449-5.302857-7.998694-11.347592-9.795918-47.537633 1.494204-90.336653 17.334857-120.325224 0.87249-67.646694-3.761633-142.63902 16.457143-191.838041 1.441959-197.632 3.395918-356.895347 12.324571-522.830367-5.987266-94.526694-4.545306-171.67151 2.011429-267.075919-2.96751 13.390367-11.781224 44.878367-11.943184 71.350858-15.292081-34.748082-4.080327-91.402449-4.869224-139.159511-1.44196-159.618612 11.509551-325.982041 7.753143-488.897306 1.170286-7.507592-5.689469 0.924735-2.748082 3.704164-7.429224-32.026122-7.920327-65.635265 3.103347-93.988572 5.632-7.073959-4.623673-0.491102-6.201469-0.083592-12.350694-32.161959-3.160816-22.689959 7.429224-41.304816 10.145959-17.496816 2.314449 5.146122-6.394776-7.565061-7.345633-8.024816-1.086694-7.157551 3.594449-7.455347 7.455347-43.102041-3.37502-77.604571-5.579755-127.890286-1.494204-15.51151 1.274776 2.883918-6.206694-7.591184-9.795918-63.237224-0.87249-152.978286 13.468735-221.852734 6.556734-32.679184-3.239184-53.357714 0.381388-90.284408 0.705307-31.566367 0.245551-62.448327-12.705959-97.875592-16.540735-29.116082-3.103347-72.515918 6.990367-116.574041 0.841143 0.788898-3.53698 11.180408-0.924735 11.180408-4.978939-127.916408 4.435592-284.922776 5.036408-406.036898 17.76849-146.149878-9.414531-315.209143 14.450939-447.456653 13.144816 3.186939-3.730286 9.414531-5.391673 18.776816-5.067755-129.306122-9.874286-327.920327-11.587918-492.705959-6.201469-15.621224 1.389714-16.028735 12.544-37.52751 10.098938-9.984 14.147918-40.218122 15.15102-60.029388 20.187429-3.47951 0.87249-14.717388 7.37698-18.771592 7.512816-60.05551 2.56-42.151184-42.997551-75.728979-65.959183-17.71102 7.235918-36.106449 10.067592-52.652408 0.40751 1.253878-15.589878 28.734694-14.147918 37.443918-24.899919-4.843102-3.47951-21.14351-7.915102-22.533225 0.167184-8.542041-4.952816-8.380082-12.820898-0.104489-17.25649-13.364245-1.253878-9.174204 8.792816-22.507102 7.538939-1.630041-5.140898 2.533878-6.556735 3.730285-9.905633-12.026776-1.358367-11.650612 4.707265-18.860408 0.167184-1.003102-15.375673 0.898612-28.844408 14.806204-34.612245C124.436898 853.321143 63.158857 813.348571 0 781.865796c1.661388-15.265959 20.762122-19.288816 22.308571-34.638367 46.074776-9.059265 75.734204-13.578449 131.484735-15.77796 8.954776-4.874449-6.938122-13.745633 3.646694-19.732898 15.809306 2.314449 37.908898 1.577796 48.84898-10.229551-13.824-3.510857-20.600163-0.731429-37.637225-4.628898 2.476408-5.767837 12.465633-6.718694 14.942041-12.48653-23.891592-14.095673 14.147918-36.054204-0.381388-51.727674 6.394776-5.715592 21.195755 3.892245 33.875592 2.230858-19.779918-7.591184 20.166531-4.383347 26.226939-10.067592-1.572571-5.12-31.399184 5.548408-22.554123-4.733388-37.632 3.866122-26.556082-1.609143-56.408816 0.433633 4.545306-37.470041 62.396082-51.973224 123.595755-69.903674-8.573388-7.486694-22.804898-21.744327-15.297306-31.947755-5.114776-4.707265-21.054694 4.24751-30.040816 5.12 0-7.350857 9.717551-8.411429 11.15951-14.806204-8.923429-5.955918-6.995592 3.698939-18.776816 2.56 11.049796-14.508408 31.456653-9.853388 48.765387-17.580408-17.089306-9.362286-34.941388-0.40751-56.408816 0.433632 1.603918-3.918367 11.781224-2.230857 7.481469-9.905632-10.720653-0.381388-7.31951 8.385306-22.533224 5.067755-1.875592-7.706122 11.483429-5.663347 7.429224-14.837551-19.372408 2.889143-43.049796 5.255837-60.16 2.889143-0.083592-9.038367 13.087347-9.498122 18.693225-14.889796-12.465633-3.996735-21.227102 2.56-37.553633 2.695837-1.577796-10.79902-1.656163-22.204082 26.122449-24.78498-1.253878-5.715592 0.543347-9.472 3.672816-12.382041-15.777959-6.912-22.689959-2.695837-56.461061-4.519184-5.987265-11.044571 15.595102-19.320163 11.075919-27.18302-10.34449-17.956571-31.320816-14.586776-60.410776-14.341224 12.084245-9.926531 6.452245-16.326531 18.614857-24.764082-18.776816-7.397878-4.900571-16.48849-3.970612-31.994776 6.744816-0.355265 7.941224 2.962286 15.046531 2.366694 8.542041-26.368 74.339265-15.835429 82.421551-42.475102-17.387102-4.926694-6.640327-28.577959-22.804898-34.366694 20.950204-32.245551 2.068898-90.206041 70.750041-91.674122-4.001959-10.584816-16.274286-15.595102-37.715592-14.503184 3.427265-11.321469-8.024816-12.820898-22.611592-12.193959 5.987265-12.538776 8.270367-13.411265-7.674776-19.617959 17.063184-21.686857 12.627592-43.535673 29.523592-74.151184 155.402449 8.59951 370.964898 8.165878 507.893551 15.945143 3.615347-0.078367 2.857796-3.045878 3.698939-4.947592 29.821388 13.630694 75.864816 5.658122 105.278694-3.239183-1.959184 1.985306-3.866122 4.022857-3.672816 7.429224 16.404898 1.603918 21.14351-4.299755 37.553632-2.721959 32.350041 5.198367 152.21551-10.260898 229.302857-11.540898 84.626286-1.441959 172.705959-12.95151 214.230204-23.781878 13.442612 21.117388 56.492408 12.956735 101.632 11.567021 11.431184-1.008327 6.426122 8.949551 15.104 9.738449 23.050449-10.992327 90.044082 5.903673 116.516572-8.244245 2.262204-6.420898-1.551673-8.839837-11.290123-7.345633 26.639673-8.709224 60.081633 0.898612 90.200817-5.579755-2.476408-2.476408-8.677878-2.476408-7.533715-7.345633 51.398531 2.748082 106.010122 10.85649 139.290123 23.593796 18.285714-5.062531 29.607184 2.56 45.197061 4.597551 44.679837 5.851429 112.222041-5.496163 165.417796-6.149224 163.996735-2.037551 325.114776 11.457306 477.685551 1.389714 2.476408 2.471184 8.677878 2.471184 7.565061 7.371755 119.071347-1.933061 213.958531-10.804245 330.85649-9.848163 1.112816-6.50449-7.862857-6.316408-15.098775-7.293388 29.931102-2.638367 58.096327 6.556735 82.829061 11.702857 26.038857-17.25649 46.257633 2.361469 82.719347 1.875592 2.178612 5.438694-7.105306 3.563102-7.455347 7.455347 122.368 8.489796 231.758367-29.878857 357.198367-10.041469 4.811755-4.24751 12.324571-6.776163 22.528-7.538939-3.510857 15.757061-38.368653 11.237878-56.299102 17.632653 57.657469 0.40751 127.211102-7.674776 195.594449 5.955918 23.781878-23.097469 91.888327-9.085388 146.557388-15.861551 1.060571 4.001959-3.542204 4.273633-3.730286 7.429225 17.742367-0.245551 28.572735 4.163918 45.197061 4.597551 0.219429-8.406204-13.985959-7.183673-26.368-7.183674 29.988571-12.24098 72.108408 8.792816 86.366041-15.480163 20.385959 2.883918 34.042776 2.883918 45.087347-5.250612 1.091918 3.970612-3.505633 4.268408-3.698939 7.455347 104.108408 13.656816 222.61551 12.000653 357.360327 12.13649-1.765878-9.524245-25.929143-4.137796-33.927837-9.581715 127.723102-12.298449 271.777959 24.137143 402.390204-2.993632-18.661878-7.669551-60.896653-6.201469-75.316245-9.278694-7.78449-1.38449-24.654367 3.239184-26.289632-2.25698 42.913959 0.950857 57.688816-6.368653 94.014693-5.632 5.799184-2.800327 7.758367-8.082286 18.724572-7.512816-8.139755 5.172245 1.933061 7.021714 0.135837 14.780082 16.242939 2.309224 20.814367-2.915265 30.040816-5.172245 20.652408 10.830367 39.700898 6.530612 63.947755-0.46498 130.528653 23.922939 297.247347 2.831673 443.862204 11.457306-35.401143 12.188735-88.032653-0.078367-120.246857 15.699592 6.50449 6.394776 37.302857-3.343673 30.202776 12.110367 16.08098 1.389714 15.239837-8.134531 30.040816-7.591183 4.81698 3.213061 4.874449 9.059265 0.083592 12.355918 30.558041-5.987265 87.212408-4.874449 124.16 8.949551-11.264 0.083592-22.528 0.135837-33.875592 0.219429 78.179265 5.929796 198.912 20.187429 289.739755 17.575183 8.192 12.601469 15.950367 0.381388 45.306775 6.995592zM2638.555429 45.322449c18.614857-1.306122 38.316408 1.603918 22.616816 9.686204 15.292082 0.87249 19.210449-5.548408 30.009469-7.591184-15.91902-0.052245-8.949551-5.548408-3.834775-9.82204-14.503184 9.00702-46.555429-8.515918-48.79151 7.732244zM4466.259592 29.351184c-4.733388-0.522449-7.732245-3.782531-7.512816 2.476408 19.241796-0.438857 37.579755-2.66449 48.901224-0.355265-1.170286-10.475102-32.600816-8.677878-41.388408-2.121143zM3428.65502 91.198694c-3.594449 9.038367 21.054694 5.12 18.829062-0.10449-9.362286-0.219429-11.676735-4.519184-18.829062 0.10449z m26.368 4.764735c12.622367-1.68751 34.962286 2.910041 41.357062-2.774205-20.051592-1.201633-28.46302-7.972571-41.362286 2.76898z m-559.51151 117.498775c10.746776 7.366531 32-1.854694 33.933061 7.126204 11.180408 0.083592 19.043265-7.371755 26.310531-2.638367-0.026122-3.265306-0.026122-6.530612-0.083592-9.853388-18.635755 2.66449-44.298449 0.846367-60.16 5.360327z m1761.060572 120.022204c11.264-2.502531 27.318857-2.011429 30.014694-10.067592-14.748735 0.30302-33.060571-1.656163-30.014694 10.067592z m82.860408 16.629551c52.051592-4.874449-22.533224-7.105306-30.098286 0.245551 12.517878-0.574694 22.308571 0.485878 30.093061-0.245551zM1329.381878 510.845388c2.941388 1.985306 22.99298 2.424163 22.475755-5.088653-9.926531 0.135837-22.12049-1.196408-22.475755 5.088653z m1121.771102 134.614204c4.785633-9.142857-22.371265-9.607837-26.368-4.707265 14.748735-2.424163 9.57649 8.463673 26.368 4.70204z m60.16-0.46498c33.441959 4.273633 61.309388-0.078367 101.553632 1.718857-20.574041-3.484735-80.734041-11.15951-101.553632-1.718857z m195.594449 1.065796c-5.903673-0.193306-13.035102 0.459755-11.295347-4.874449-22.773551 5.250612-57.385796-0.350041-75.232653 0.574694 41.357061 8.134531 61.001143 9.926531 86.528 4.299755z m-394.830368 12.758204c-25.579102 4.001959-61.633306-6.368653-71.429224 2.993633 44.110367 6.582857 141.578449 9.226449 191.811918-1.441959-39.758367-2.507755-64.083592-8.353959-101.553633-4.163919 29.199673 8.954776-26.148571-3.103347-26.341877-2.256979 4.190041 0.517224 5.825306 2.716735 7.512816 4.869224z m421.22449-3.129469c8.787592-0.026122 17.522939-0.10449 26.310531-0.188082 1.499429-9.905633-25.547755-3.866122-26.310531 0.188082z m-289.551673 4.597551c-2.314449 0.167184-4.435592 0.438857-3.756409 2.476408 16.48849 1.201633 67.730286-2.037551 26.284409-2.638367-7.836735-5.32898-12.131265 2.288327-18.797715-2.309225-0.245551-1.525551-0.600816-2.915265-3.813877-2.476408 0.052245 1.682286 0.052245 3.317551 0.083592 4.947592z m-214.256327 16.384c-3.782531 4.952816-13.991184 5.767837-18.724571 9.984 81.852082 3.84 221.549714 0.491102 315.893551-2.340572-83.513469-13.275429-198.368653 0.788898-297.16898-7.643428z m2701.139592 98.283102c38.60898 15.621224 94.72 21.362939 143.020408 18.693224-49.30351-2.19951-103.481469-26.362776-143.020408-18.693224z m-165.334204 25.876898c12.110367 7.403102 44.026776 5.851429 56.408816-0.376163-0.97698 5.632 0.982204 9.221224 7.591184 9.769796 6.478367-5.067755-2.826449-4.790857 3.672816-9.905633-20.788245-9.665306-42.85649-4.681143-67.672816 0.517224z m-67.672817 2.96751c15.077878-0.924735 20.897959 4.221388 37.632 2.204735-1.274776-12.596245-37.386449-7.31951-37.632-2.204735z m327.37698 19.785143c12.24098 2.063673 23.40049 1.630041 45.139592 2.089796-0.40751-11.342367-32.569469-4.216163-45.139592-2.089796z m-3350.204082 113.439347c-9.310041 4.24751-36.519184-4.435592-48.901224 2.831673 8.380082 7.455347 43.373714 6.03951 48.901224-2.831673z m1636.106449 12.601469c-13.766531 1.901714-20.924082-5.93502-30.066938 0.245551 13.985959 11.128163 45.306776 7.643429 71.455347 6.828408 42.229551-1.332245 82.123755-7.565061 124.107755-3.37502-39.998694-13.494857-134.227592-5.987265-165.496164-3.698939z m225.661388 0.757551c16.514612 2.993633 55.374367 0.219429 78.962939-5.522285-27.585306 2.96751-75.102041-9.221224-78.962939 5.52751z m229.386449-6.635102c-0.783673 10.934857-36.75951-0.788898-37.522286 10.145959 18.829061 3.918367 32.245551 0.522449 48.901225-2.800326 1.844245 6.478367 2.988408 8.270367 11.399837 14.665143 78.200163-21.660735 154.091102 12.873143 229.355102-9.059266-82.912653-10.720653-169.440653 1.222531-252.133878-12.956734z m-691.947102 14.962939c-19.126857 0.052245-43.425959-10.44898-52.568816 5.360327 67.672816 3.970612 134.912 2.09502 202.992326-11.347592-48.869878-0.240327-103.131429 5.877551-150.42351 5.987265z" p-id="70186" fill="#ffffff"></path></svg>